<?xml version="1.0" encoding="utf-8"?>
<!DOCTYPE svg PUBLIC "-//W3C//DTD SVG 1.1//EN" "http://www.w3.org/Graphics/SVG/1.1/DTD/svg11.dtd" [
	<!ENTITY ns_svg "http://www.w3.org/2000/svg">
	<!ENTITY ns_xlink "http://www.w3.org/1999/xlink">
]>
<svg  version="1.1" id="logo_1" xmlns="&ns_svg;" xmlns:xlink="&ns_xlink;" 
	 viewBox="0 0 777.005 122.428" overflow="visible" enable-background="new 0 0 777.005 122.428" xml:space="preserve">
<polygon fill="#CCCCCC" points="424.693,19.14 432.788,19.14 477.194,78.02 477.44,78.02 477.44,19.14 484.799,19.14 
	484.799,88.816 476.702,88.816 432.298,29.933 432.05,29.933 432.05,88.816 424.693,88.816 "/>
<path fill="#CCCCCC" d="M501.238,66c-0.246,14.228,11.039,18.643,25.024,18.643c7.851,0,20.118-3.923,20.118-14.227
	c0-7.853-8.588-11.041-15.703-12.513l-16.926-3.681c-9.077-2.208-17.173-6.132-17.173-16.929c0-6.869,4.659-19.626,26.251-19.626
	c14.963,0,28.213,7.359,28.213,21.59h-7.356c-0.494-10.551-10.062-15.947-20.856-15.947c-9.813,0-19.137,3.434-19.137,13.983
	c0,6.379,5.396,9.078,11.531,10.551l18.645,4.169c10.796,2.699,19.875,6.87,19.875,18.402c0,4.661-2.213,19.874-29.196,19.874
	c-18.159,0-31.407-7.363-30.426-24.29H501.238z"/>
<rect x="563.558" y="19.14" fill="#CCCCCC" width="7.359" height="69.921"/>
<path fill="#CCCCCC" d="M584.656,19.14h26.252c23.057,0.491,35.084,12.021,35.084,34.837c0,22.819-12.027,34.349-35.084,34.843
	h-26.252V19.14z M591.769,83.175h15.703c21.837,0.244,31.405-8.344,31.405-29.198s-9.568-29.195-31.405-29.195h-15.703V83.175z"/>
<polygon fill="#CCCCCC" points="655.56,19.14 708.311,19.14 708.311,24.782 662.92,24.782 662.92,50.052 705.366,50.052 
	705.366,55.694 662.92,55.694 662.92,83.175 708.802,83.175 708.802,88.816 655.56,88.816 "/>
<path fill="#CCCCCC" d="M716.896,19.14h34.837c12.514,0,23.307,5.643,23.307,18.154c0,8.833-5.146,15.948-14.962,17.665v0.246
	c9.815,1.227,12.759,7.604,13.246,15.701c0.492,4.906,0.492,14.478,3.681,17.915h-8.094c-1.72-2.7-1.72-7.854-1.966-10.801
	c-0.733-9.811-1.47-20.607-15.212-20.117h-27.725V88.82h-7.112V19.14z M724.009,52.26h27.236c8.833,0,16.438-5.152,16.438-13.494
	c0-8.586-5.645-13.984-16.438-13.984h-27.236V52.26z"/>
<path fill="#BF1D20" d="M401.137,88.816V19.14h12.269c-9.322-9.815-22.571-15.949-37.047-15.949
	c-28.215,0-51.033,22.817-51.033,51.031c0,28.216,22.817,51.032,51.033,51.032c14.718,0,28.213-6.376,37.537-16.438H401.137z"/>
<path fill="#FFFFFF" d="M61.827,6.135c0,0,0,22.571,0,26.007c-3.926,0-41.22,0-41.22,0C9.323,32.142,0,41.465,0,52.751v16.437
	C0,80.72,9.323,89.795,20.607,89.795h32.877c11.531,0,20.609-9.075,20.609-20.606V6.135c0-3.433-2.7-6.135-6.133-6.135
	C64.771,0,61.827,2.702,61.827,6.135z M12.268,69.188V52.751c0-4.662,3.925-8.342,8.34-8.342c0,0,37.293,0,41.22,0
	c0,3.435,0,24.779,0,24.779c0,4.663-3.681,8.342-8.342,8.342H20.607C16.192,77.53,12.268,73.852,12.268,69.188z"/>
<path fill="#FFFFFF" d="M263.499,32.387c-11.286,0-20.61,9.323-20.61,20.609v63.296c0,3.193,2.7,6.135,6.134,6.135
	c3.436,0,6.134-2.941,6.134-6.135c0,0,0-22.568,0-26.003c4.172,0,41.218,0,41.218,0c11.286,0,20.608-9.324,20.608-20.855V52.997
	c0-11.286-9.322-20.609-20.608-20.609H263.499z M255.157,52.997c0-4.663,3.681-8.342,8.342-8.342h32.876
	c4.662,0,8.342,3.679,8.342,8.342v16.438c0,4.661-3.68,8.585-8.342,8.585c0,0-37.046,0-41.218,0
	C255.157,74.587,255.157,52.997,255.157,52.997z"/>
<path fill="#FFFFFF" d="M229.643,78.02h-47.351c-4.663,0-8.589-3.924-8.589-8.585V52.997c0-4.663,3.926-8.587,8.589-8.587h32.876
	c2.698,0,5.395,0.735,6.869,1.961c1.471,0.982,1.717,1.963,1.717,2.209c0,5.642,0,10.059,0,10.059c0,3.436,2.7,5.889,5.889,5.889
	c3.188,0,5.888-2.453,5.888-5.889c0,0,0-4.417,0-10.059c0-5.151-3.19-9.323-6.87-12.021c-3.681-2.455-8.341-3.925-13.493-3.925
	h-32.876c-11.287,0-20.364,9.077-20.364,20.363v16.438c0,11.285,9.078,20.36,20.364,20.36h47.351c3.188,0,5.888-2.697,5.888-5.884
	C235.531,80.72,232.831,78.02,229.643,78.02z"/>
<rect x="167.325" y="54.958" fill="#FFFFFF" width="62.072" height="12.022"/>
<path fill="#FFFFFF" d="M223.754,58.639v1.962c0,3.191,2.7,5.643,5.889,5.643c3.188,0,5.888-2.452,5.888-5.643v-1.962
	c0-3.191-2.7-5.888-5.888-5.888C226.454,52.751,223.754,55.448,223.754,58.639z"/>
<path fill="#FFFFFF" d="M223.754,60.601v0.492c0,3.188,2.7,5.888,5.889,5.888c3.188,0,5.888-2.699,5.888-5.888v-0.492
	c0-3.433-2.7-5.888-5.888-5.888C226.454,54.713,223.754,57.168,223.754,60.601z"/>
<path fill="#FFFFFF" d="M149.169,78.02h-47.352c-4.906,0-8.587-3.924-8.587-8.585V52.997c0-4.663,3.681-8.587,8.587-8.587h32.876
	c2.7,0,5.397,0.735,6.871,1.961c1.471,0.982,1.717,1.963,1.717,2.209c0,5.642,0,10.059,0,10.059c0,3.436,2.452,5.889,5.888,5.889
	c3.189,0,5.889-2.453,5.889-5.889c0,0,0-4.417,0-10.059c0-5.151-3.19-9.323-6.87-12.021c-3.68-2.455-8.589-3.925-13.495-3.925
	h-32.876c-11.285,0-20.364,9.077-20.364,20.363v16.438c0,11.285,9.079,20.36,20.364,20.36h47.352c3.189,0,5.889-2.697,5.889-5.884
	C155.058,80.72,152.358,78.02,149.169,78.02z"/>
<rect x="86.852" y="54.958" fill="#FFFFFF" width="62.072" height="12.022"/>
<path fill="#FFFFFF" d="M143.281,58.639v1.962c0,3.191,2.452,5.643,5.888,5.643c3.189,0,5.889-2.452,5.889-5.643v-1.962
	c0-3.191-2.699-5.888-5.889-5.888C145.733,52.751,143.281,55.448,143.281,58.639z"/>
<path fill="#FFFFFF" d="M143.281,60.601v0.492c0,3.188,2.452,5.888,5.888,5.888c3.189,0,5.889-2.699,5.889-5.888v-0.492
	c0-3.433-2.699-5.888-5.889-5.888C145.733,54.713,143.281,57.168,143.281,60.601z"/>
</svg>
