<?xml version="1.0" encoding="utf-8"?>
<!DOCTYPE svg PUBLIC "-//W3C//DTD SVG 1.1//EN" "http://www.w3.org/Graphics/SVG/1.1/DTD/svg11.dtd" [
	<!ENTITY ns_svg "http://www.w3.org/2000/svg">
	<!ENTITY ns_xlink "http://www.w3.org/1999/xlink">
]>
<svg  version="1.1" id="manabu_1" xmlns="&ns_svg;" xmlns:xlink="&ns_xlink;" 
	 viewBox="0 0 777.251 617.477" overflow="visible" enable-background="new 0 0 777.251 617.477" xml:space="preserve">
<path fill="#FFFFFF" d="M112.292,407.432c5.954-9.863,12.699-19.52,15.701-30.645c1.441-5.334,1.827-11.021,0.893-16.479
	c-0.802-4.703-3.081-11.759-7.322-13.602c-4.606,2.948-19.168,8.478-39.074,12.533c-12.852,2.62-25.998,5.209-38.261,9.958
	c-12.07,4.683-23.612,11.52-31.761,21.582C0.832,405.158-2.688,425.342,2.029,443.232c4.721,17.885,17.193,33.306,32.97,42.959
	c15.777,9.651,42.259,15.021,57.305,13.424c-0.03-0.115-0.059-0.23-0.089-0.349c-3.869-15.477-3.067-32.327,0.838-47.801
	C96.987,435.876,103.982,421.195,112.292,407.432"/>
<path fill="#FFFFFF" d="M458.72,558.424c-11.292-14.745-18.111-30.783-15.716-57.505c-30.472,10.468-61.76,12.81-93.386,6.635
	c-2.642-0.519-9.374-2.24-9.374-2.24c-5.653,1.229-11.514,5.438-16.674,9.365c3.619,6.534,4.621,12.473,3.5,20.582
	c-0.298,2.163-1.362,5.037-3.512,5.395c-1.162,0.193-2.307-0.334-3.337-0.898c-4.403-2.419-7.184-7.963-10.844-12.605
	c-4.792-6.082-13.049-7.199-16.957-2.765c3.014,13.731,15.465,25.755,29.49,26.726c10.69,0.737,20.091-4.239,20.581-12.165
	c0.166-2.629-1.076-6.401-1.227-9.031c-0.149-2.632,0.788-4.792,3.318-5.529c2.935-0.855,5.194,1.495,6.539,4.239
	c6.496,13.259-3.083,29.839-17.046,34.65c-13.958,4.81-30.042-0.921-41.837-11.611c-8.265-7.49-13.088-15.298-14.745-27.094
	c-18.454-1.696-38.57-4.055-51.104-16.957c-2.041-2.097-4.095-4.979-2.716-7.557c1.95-3.646,8.506-0.262,12.165,1.659
	c27.278,14.304,63.586,11.427,88.284-3.687c-25.865-8.663-45.771-41.595-72.064-43.806c2.834,2.595,5.78,6.116,6.5,9.892
	c0.737,3.871-2.097,7.558-4.854,7.283c-2.383-0.23-3.5-1.722-4.657-2.675c-4.27-3.537-9.216-11.808-12.165-16.724
	c-0.819-1.368-10.15-1.454-14.411,1.979c-0.036,0.025-0.154,1.262-0.186,1.29c-1.44,10.014-6.919,20.975-16.317,25.029
	c-5.523,2.382-11.565,2.447-16.762-0.49c-5.653-3.196-9.584-10.298-9.584-10.298c-21.186,12.479-32.719,21.207-58.384,31.773
	c-2.489,1.025-5.025,1.999-7.591,2.906c17.995,49.266,68.609,89.645,126.84,103.37c75.659,17.835,151.864,12.294,221.538-22.178
	c5.362-2.658,10.903-5.486,16.847-5.826C471.499,573.169,463.694,564.916,458.72,558.424"/>
<path fill="#FFFFFF" d="M587.495,493.543c-5.665-10.728-9.095-21.686-5.714-30.164c2.474-6.212,8.662-10.877,15.787-11.122
	c6.238-0.213,14.256,5.898,23.103,3.687c2.949-0.737,3.687-2.212,3.194-9.095c-0.789-11.053-8.632-30.61-13.764-40.301
	c-7.741-14.624-15.113-31.529-17.743-48.414c-2.45-15.729-5.224-31.243-12.262-47.429c-11.759-27.033-33.876-58.98-75.027-87.364
	c-27.042-18.647-60.849-32.93-94.025-40.303c-34.385-7.642-75.32-11.905-130.982-2.135c-55.739,9.781-94.399,32.96-117.223,48.978
	c-20.631,14.472-29.006,26.849-36.021,39.625c-5.515,10.036-7.051,16.571-7.508,23.595c-0.419,13.486,4.267,19.779,10.955,29.254
	c14.523-16.196,39.047-37.116,62.565-50.479c21.628-12.289,43.235-19.696,66.957-23.198c47.703-7.044,96.495,0.801,141.229,18.8
	c42.334,17.029,86.973,45.848,107.25,86.722c7.669,15.462,10.361,34.389,4.864,50.749c-4.062,12.084-15.085,22.665-22.464,33.053
	c-20.188,28.444-30.483,65.215-15.183,96.557c18.034,36.954,51.556,57.283,95.946,51.599c31.555-4.037,55.486-32.718,65.227-63.124
	c-7.237-0.729-14.739-2.609-22.869-6.197C602.083,511.664,592.421,502.88,587.495,493.543 M554.194,555.871
	c-10.321,5.036-26.664-5.161-35.512-13.271c-10.566-9.686-18.045-22.222-19.781-36.494c-2.212-18.187,2.502-34.273,11.919-48.166
	c7.678-11.338,23.65-27.561,36.863-30.106c0.296-0.061,1.419-0.222,1.719-0.245c1.599-0.124,2.816,0.239,3.583,1.308
	c1.482,2.07,0.812,4.588-1.003,6.679c-8.115,9.359-18.782,17.095-26.296,27.157c-6.819,9.129-11.422,19.497-12.533,30.841
	c-1.604,16.357,5.93,34.771,18.556,43.253c6.896,4.631,12.495,8.084,20.029,11.548c1.008,0.461,4.798,2.184,5.25,3.197
	C557.708,553.18,556.317,554.831,554.194,555.871"/>
<g id="XMLID_14_">
	<g>
		<path fill="#FFFFFF" d="M770.12,207.288c4.11,6.45,7.99,13.89,6.591,21.42c-1.461,11.96-21.61,13.68-34.181,16.93
			c-44.74,12.72-72.89,61.58-64.37,107.55c5.971,32.18,28.551,60.529,29.04,93.26c0.33,21.979-4.75,40.18-26.22,54.2
			c-9.44,6.17-23.69,9.6-42.72,7c-9.05-1.25-22.261-5.75-32.69-14.801c-7.609-6.6-13.33-16.96-11.689-22.409
			c1.35-4.45,4.189-6.101,9.6-4.13c4.98,1.8,13.95,3.449,21.01,3.85c9.771,0.56,14.431-1.95,20.021-5.37
			c8.05-4.91,13.31-13.5,15.479-19.41c3.32-9.03,0.84-18.93-3.189-14.56c-1.721,1.859-3.7,6.79-6.801,10.2
			c-1.619,1.779-3.529,1.409-3.529,1.409c-0.7-18.8-14.8-35.13-20.79-51.359c-6.12-16.601-9.72-33.5-14.01-53.03
			c-8.03-36.68-23.551-69.9-49.631-97.79c-24.029-25.68-45.569-38.2-64-48.34c-45.3-24.91-88.22-36.06-140.319-39.32
			c-37.59-2.35-74.16,1.42-117.66,14.87c-47.66,14.74-85.83,40.77-103.03,57.23c-2.45,2.35-4.85,4.95-7.2,7.73
			c2.05-13.32,0.82-27.3,2.46-40.81c1.91-15.58,7.92-30.58,17.01-43.35c15.56-21.86,42.91-37.82,67.23-47.89
			c29.37-12.17,59.41-14.52,90.73-15.27c47.1-1.12,96.8,0.3,138-22.56c24.8-13.76,44.58-35.44,69.689-48.63
			c15.7-8.24,33.25-12.77,50.95-13.52c15.68-0.65,35.86,0.83,50.04,8.22c2.23,1.16,4.16,3.2,4.53,5.7
			c0.939,3.96-4.221,17.96-16.13,24.87c-5.74,4.16-13.141,6.05-19.08,10.57c-7.601,5.79-14.181,12.93-19.28,21.01
			c-5.91,9.34-9.92,20.48-8.12,31.38c1.94,11.83,10.561,21.77,20.88,27.86c10.32,6.1,22.25,8.84,34.061,10.86
			c23.22,3.96,46.83,5.42,69.92,10.03c23.09,4.63,46.13,12.74,63.93,28.17C755.93,187.098,763.54,196.917,770.12,207.288z"/>
	</g>
	<g>
	</g>
</g>
<path fill="#FFFFFF" d="M204.172,376.284c20.361,3.727,19.756,41.023,19.134,63.688c17.909-4.585,35.568-2.744,49.396,2.949
	c19.838,8.161,32.234,23.2,48.166,34.896c23.1,16.956,66.845,21.38,93.632,12.78c11.439-3.674,20.062-5.797,29.694-11.551
	c6.76-26.593,24.494-44.445,35.046-58.542c6.738-8.994,18.995-23.506,14.008-41.899c-13.884-51.188-73.8-85.789-130.986-100.266
	c-40.336-10.207-86.476-14.61-126.807-2.108c-24.361,7.548-45.694,18.134-64.017,33.003c-9.318,7.562-18.614,17.202-29.304,28.283
	c11.551,10.569,7.276,33.617,1.162,47.752c-13.494,31.212-37.826,52.809-32.766,98.08c17.204-0.492,56.962-23.479,63.38-29.96
	C164.694,421.319,177.85,371.471,204.172,376.284 M402.807,445.755c-3.182,13.829-11.237,39.926-31.271,39.771
	c-16.685-0.126-21.74-24.312-23.756-35.169c-3.525-18.984-1.297-39.55,8.012-57.119c2.713-5.121,7.004-10.941,11.937-14.29
	c2.333-1.584,5.05-2.762,7.865-3.338c3.135-0.648,6.412-0.591,9.381,0.544c8.145,3.119,11.286,10.308,13.76,16.614
	C405.235,409.341,406.776,428.516,402.807,445.755 M335.358,350.477c4.492-8,10.534-15.188,18.208-20.301
	c4.683-3.121,9.869-5.258,15.216-6.37c12.271-2.546,25.38,0.309,35.154,8.997c10.785,9.59,16.353,25.254,19.658,38.925
	c0.662,2.735,1.192,5.655,0.312,8.331c-1.686,5.109-7.494,5.733-9.896,0.936c-10.578-21.126-25.326-51.846-53.733-34.529
	c-8.375,5.104-14.562,13.192-19.236,21.815c-2.012,3.703-3.83,7.614-6.824,10.577c-0.72,0.715-1.54,1.383-2.524,1.619
	c-2.327,0.567-4.592-1.622-5.031-3.972C325.235,368.879,331.77,356.871,335.358,350.477 M165.52,383.703
	c-7.204-3.01-2.389-17.519-0.672-22.717c1.958-5.918,5.208-11.793,9.277-16.525c7.331-8.519,17.55-13.155,27.745-13.952
	c21.659-1.693,36.19,17.111,37.088,37.467c0.301,6.822-7.39,13.639-9.754,4.17c-2.459-9.829-6.156-14.822-14.438-21.127
	c-6.125-4.659-14.967-4.898-21.883-1.521c-6.504,3.183-11.56,9.313-14.113,16.035c-1.82,4.787-1.84,10.736-4.814,14.987
	C172.096,383.184,168.522,384.955,165.52,383.703"/>
</svg>
